<?xml version="1.0" encoding="UTF-8"?><svg xmlns="http://www.w3.org/2000/svg" width="447" height="447" viewBox="0 0 447 447" shape-rendering="geometricPrecision" text-rendering="geometricPrecision"><path d="M 249 137.778 C 249 139.229, 252.497 142, 254.329 142 C 257.741 142, 255.582 138.883, 251.250 137.555 C 250.012 137.176, 249 137.276, 249 137.778 M 130.306 331.645 C 129.384 334.048, 133.063 336.639, 134.288 334.449 C 134.772 333.585, 134.919 332.231, 134.615 331.439 C 133.865 329.485, 131.084 329.617, 130.306 331.645" stroke="none" fill="#2e2e30" fill-rule="evenodd"/><path d="M 272.212 157.188 C 270.347 159.053, 270.773 163.485, 273.012 165.511 C 274.993 167.303, 275.023 167.278, 274.917 163.916 C 274.858 162.037, 274.965 159.648, 275.155 158.608 C 275.571 156.323, 273.889 155.511, 272.212 157.188 M 278 174.865 C 278 175.341, 278.933 176.916, 280.073 178.365 C 282.354 181.266, 287 182.027, 287 179.500 C 287 178.675, 286.386 178, 285.635 178 C 284.884 178, 283.126 177.100, 281.727 176 C 278.958 173.821, 278 173.530, 278 174.865 M 162.980 272.524 C 161.421 274.403, 161.609 274.574, 166.134 275.391 C 171.012 276.272, 172.320 273.656, 167.790 272.077 C 164.001 270.756, 164.485 270.711, 162.980 272.524 M 158.692 280.152 C 156.608 281.319, 154 286.195, 154 288.925 C 154 291.555, 159.325 294.542, 160.774 292.724 C 162.458 290.612, 165 285.162, 165 283.665 C 165 281.422, 160.701 279.028, 158.692 280.152 M 285.550 282.944 C 284.061 284.590, 283.955 285.241, 284.975 286.470 C 285.664 287.299, 286.654 287.714, 287.176 287.391 C 287.699 287.068, 289 287.595, 290.069 288.563 C 292.742 290.981, 293.274 289.995, 291.772 285.409 C 290.302 280.923, 288.151 280.071, 285.550 282.944 M 150 299.758 C 150 300.249, 151.113 301.697, 152.474 302.975 C 154.705 305.072, 155.012 305.131, 155.607 303.583 C 155.969 302.638, 155.868 301.496, 155.383 301.045 C 153.967 299.730, 150 298.781, 150 299.758" stroke="none" fill="#636364" fill-rule="evenodd"/><path d="M 211.609 80.064 C 206.719 80.499, 201.544 81.158, 200.109 81.528 C 198.674 81.899, 195.250 82.555, 192.500 82.985 C 176.671 85.460, 154.789 95.345, 139.090 107.111 C 129.594 114.229, 112.187 130.727, 110.357 134.345 C 109.479 136.080, 107.450 139.300, 105.847 141.500 C 99.779 149.829, 97.962 152.712, 94.187 160 C 83.967 179.736, 78.702 205.741, 80.218 229 C 80.666 235.875, 81.054 242.850, 81.081 244.500 C 81.141 248.240, 83.735 260.329, 85.478 265 C 86.197 266.925, 87.384 270.498, 88.115 272.939 C 88.847 275.381, 91.145 280.008, 93.223 283.223 C 95.300 286.437, 97 289.803, 97 290.703 C 97 292.748, 102.402 302.450, 105.885 306.661 C 107.323 308.400, 109.625 311.486, 111 313.520 C 113.391 317.056, 122.125 326.401, 126.765 330.388 C 128.557 331.928, 129.240 332.045, 130.469 331.026 C 132.963 328.956, 135.258 330.547, 134.534 333.846 C 133.766 337.343, 135.649 338.920, 151.500 348.052 C 169.026 358.150, 179.724 362.170, 198.500 365.713 C 206.861 367.291, 231.823 367.972, 240.500 366.859 C 280.059 361.786, 315.928 340.678, 340.241 308.166 C 345.643 300.942, 357.246 279.480, 358.984 273.500 C 359.623 271.300, 360.819 267.250, 361.642 264.500 C 364.527 254.861, 365.023 252.405, 366.486 240.500 C 368.609 223.223, 368.492 215.401, 366.079 213.335 C 364.330 211.838, 364.292 211.484, 365.656 209.402 C 368.662 204.815, 362.695 181.258, 353.522 161.492 C 344.718 142.525, 335.269 130.623, 314.003 111.720 C 304.280 103.076, 286.168 92.891, 271 87.537 C 253.157 81.238, 245.823 80.328, 242.500 84 C 240.056 86.700, 238.652 86.522, 239.384 83.604 C 239.818 81.878, 239.499 81.020, 238.243 80.535 C 235.452 79.458, 221.260 79.206, 211.609 80.064 M 205 88.684 C 197.643 89.450, 180.122 94.339, 171.310 98.085 C 148.788 107.661, 133.068 119.998, 113.444 143.500 C 108.198 149.783, 97.932 170.076, 93.967 182 C 86.231 205.266, 85.844 240.569, 93.102 260.788 C 94.146 263.696, 95 267.091, 95 268.333 C 95 271.349, 105.836 292.276, 112.065 301.291 C 118.982 311.300, 137.490 330, 140.480 330 C 143.265 330, 143.499 329.451, 144.994 319.407 C 146.343 310.347, 147.927 304.073, 149.335 302.211 C 150.593 300.547, 156.316 305.734, 155.518 307.815 C 152.394 315.955, 150.921 336.304, 153.250 339.140 C 155.408 341.768, 165.742 348, 167.941 348 C 169.098 348, 173.060 349.368, 176.747 351.039 C 196.602 360.042, 232.750 362.010, 256.728 355.393 C 259.903 354.517, 263.625 353.575, 265 353.300 C 268.059 352.688, 286.776 343.798, 292.155 340.402 L 296.067 337.933 295.438 328.716 C 295.091 323.647, 293.905 316.350, 292.801 312.500 C 291.697 308.650, 290.165 303.311, 289.397 300.635 C 288.629 297.960, 288 294.787, 288 293.585 C 288 292.383, 287.460 290.860, 286.800 290.200 C 285.917 289.317, 285.895 288.705, 286.715 287.885 C 287.536 287.064, 288.776 287.490, 291.407 289.497 C 296.337 293.257, 299.677 303.595, 302.846 324.896 C 304.047 332.971, 307.575 332.313, 317.319 322.198 C 319.069 320.381, 323.313 316.016, 326.750 312.498 C 330.188 308.979, 333 305.663, 333 305.128 C 333 304.594, 335.003 301.169, 337.452 297.518 C 344.214 287.433, 351.583 271.149, 354.548 259.739 C 358.962 242.749, 359.103 241.913, 359.552 230 C 359.790 223.675, 360.225 217.478, 360.517 216.229 C 360.809 214.981, 360.489 212.956, 359.805 211.729 C 359.121 210.503, 358.259 206.575, 357.889 203 C 357.519 199.425, 356.689 194.700, 356.044 192.500 C 355.399 190.300, 354.482 186.700, 354.007 184.500 C 351.902 174.761, 339.753 151.142, 331.807 141.342 C 328.512 137.278, 325.703 133.184, 325.565 132.245 C 325.428 131.306, 323.708 129.630, 321.745 128.519 C 319.781 127.409, 314.363 123.125, 309.705 119 C 301.649 111.865, 283.637 100.011, 280.821 99.990 C 280.094 99.985, 277.084 98.856, 274.131 97.481 C 258.189 90.060, 228.317 86.258, 205 88.684 M 209.500 133.482 C 206.750 134.268, 203.548 134.932, 202.385 134.956 C 201.222 134.980, 199.077 135.938, 197.619 137.085 C 196.161 138.232, 193.288 139.633, 191.234 140.199 C 185.663 141.734, 167.981 160.159, 163.926 168.655 C 158.549 179.922, 157.667 184.260, 157.862 198.500 C 158.022 210.172, 158.293 211.995, 160.520 216.342 C 161.884 219.006, 163 222.065, 163 223.142 C 163 227.081, 169.904 237.849, 177.217 245.318 C 179.848 248.004, 182 250.640, 182 251.174 C 182 251.709, 180.143 253.801, 177.874 255.823 C 172.502 260.610, 164.860 269.964, 165.489 270.983 C 165.760 271.420, 167.137 272.069, 168.551 272.423 C 170.763 272.979, 172.315 271.950, 179.733 265.010 C 189.006 256.334, 191.751 254.959, 195.257 257.235 C 198.402 259.276, 212.609 263.722, 218 264.353 C 225.730 265.257, 237.813 263.167, 246.417 259.439 C 250.782 257.547, 255.221 256, 256.283 256 C 258.783 256, 271.759 268.591, 278.182 277.250 C 283.700 284.689, 283.939 284.830, 286.401 282.109 C 288.021 280.320, 287.998 279.974, 285.976 275.673 C 283.708 270.848, 277.585 263.402, 269.573 255.724 L 264.697 251.052 268.598 246.652 C 278.599 235.370, 282.168 229.689, 286.596 218 C 289.146 211.270, 289.437 209.267, 289.431 198.500 C 289.422 183.152, 288.883 181, 285.048 181 C 281.296 181, 280.642 183.050, 281.902 190.871 C 283.978 203.762, 279.105 221.277, 270.180 233 C 263.815 241.361, 248.559 252.501, 242.002 253.577 C 240.076 253.893, 237.243 254.630, 235.706 255.215 C 229.185 257.698, 214.271 256.458, 201.205 252.345 C 195.621 250.587, 179.142 237.935, 176.256 233.190 C 169.664 222.351, 166.854 214.969, 165.759 205.612 C 163.406 185.500, 168.684 170.227, 182.984 155.773 C 187.393 151.316, 191 147.294, 191 146.835 C 191 146.376, 191.787 145.994, 192.750 145.987 C 193.713 145.979, 198.325 144.635, 203 143 C 213.236 139.419, 230.228 138.785, 240 141.618 C 243.025 142.496, 246.625 143.278, 248 143.357 C 249.375 143.435, 250.950 144.009, 251.500 144.631 C 252.050 145.254, 255.603 148.358, 259.396 151.531 C 265.096 156.298, 266.594 157.110, 268.031 156.213 C 268.987 155.616, 270.834 155.402, 272.135 155.739 L 274.500 156.350 271.875 152.925 C 270.431 151.041, 268.451 149.341, 267.474 149.148 C 266.498 148.954, 264.622 147.515, 263.305 145.951 C 260.708 142.864, 257.633 141.449, 254.524 141.910 C 253.246 142.099, 251.437 140.880, 249.408 138.463 C 245.636 133.971, 241.733 132.986, 225.500 132.430 C 217.935 132.170, 212.939 132.499, 209.500 133.482 M 274.710 160.313 C 273.158 164.359, 276.844 172.669, 281.653 175.964 C 285.808 178.812, 286.669 178.149, 285.169 173.256 C 282.371 164.124, 276.185 156.469, 274.710 160.313 M 160.546 276.741 C 160.105 277.891, 160.615 279.080, 162.050 280.241 C 164.933 282.576, 165.645 282.471, 167.648 279.415 C 169.090 277.214, 169.131 276.696, 167.921 275.930 C 165.499 274.397, 161.267 274.863, 160.546 276.741 M 152.439 294.117 C 150.586 297.702, 151.020 299.510, 153.916 300.268 C 155.364 300.647, 156.596 300.058, 157.945 298.343 C 160.230 295.438, 159.809 293.690, 156.457 292.162 C 154.264 291.163, 153.867 291.357, 152.439 294.117" stroke="none" fill="#3b3a3c" fill-rule="evenodd"/><path d="M 0 223.502 L 0 447.004 223.750 446.752 L 447.500 446.500 447.752 223.250 L 448.004 0 224.002 0 L 0 0 0 223.502 M 0.491 224 C 0.491 346.925, 0.608 397.213, 0.750 335.750 C 0.892 274.288, 0.892 173.713, 0.750 112.250 C 0.608 50.788, 0.491 101.075, 0.491 224 M 211.609 80.064 C 206.719 80.499, 201.544 81.158, 200.109 81.528 C 198.674 81.899, 195.250 82.555, 192.500 82.985 C 176.671 85.460, 154.789 95.345, 139.090 107.111 C 129.594 114.229, 112.187 130.727, 110.357 134.345 C 109.479 136.080, 107.450 139.300, 105.847 141.500 C 99.779 149.829, 97.962 152.712, 94.187 160 C 83.967 179.736, 78.702 205.741, 80.218 229 C 80.666 235.875, 81.054 242.850, 81.081 244.500 C 81.141 248.240, 83.735 260.329, 85.478 265 C 86.197 266.925, 87.384 270.498, 88.115 272.939 C 88.847 275.381, 91.145 280.008, 93.223 283.223 C 95.300 286.437, 97 289.803, 97 290.703 C 97 292.748, 102.402 302.450, 105.885 306.661 C 107.323 308.400, 109.625 311.495, 111 313.541 C 113.374 317.072, 122.408 326.551, 128.626 332.035 C 143.121 344.819, 167.121 358.001, 184.102 362.506 C 200.702 366.910, 225.299 368.808, 240.500 366.859 C 280.059 361.786, 315.928 340.678, 340.241 308.166 C 346.802 299.391, 357.334 279.009, 359.961 270 C 361.164 265.875, 362.531 261.375, 362.999 260 C 365.784 251.811, 368.556 227.191, 367.617 219 C 367.269 215.975, 366.820 210.800, 366.617 207.500 C 365.205 184.508, 353.806 156.511, 336.776 134.210 C 333.994 130.567, 323.084 119.792, 314.003 111.720 C 304.280 103.076, 286.168 92.891, 271 87.537 C 258.333 83.065, 254.063 82, 248.806 82 C 245.880 82, 241.915 81.533, 239.993 80.961 C 235.171 79.528, 222.244 79.119, 211.609 80.064 M 205 88.684 C 192.016 90.035, 168.959 97.984, 156.005 105.576 C 139.036 115.521, 118.788 134.532, 109.222 149.500 C 106.148 154.310, 95.930 176.072, 93.963 182 C 86.231 205.299, 85.845 240.573, 93.102 260.788 C 94.146 263.696, 95 267.091, 95 268.333 C 95 271.349, 105.836 292.276, 112.065 301.291 C 118.982 311.300, 137.490 330, 140.480 330 C 143.267 330, 143.504 329.443, 144.980 319.407 C 146.153 311.434, 147.403 306.178, 149.001 302.500 C 152.867 293.607, 154.001 290.462, 154.004 288.623 C 154.008 286.201, 157.512 280, 158.877 280 C 159.375 280, 160.053 278.925, 160.383 277.611 C 161.118 274.681, 172.223 260.843, 177.866 255.823 C 180.140 253.801, 182 251.709, 182 251.174 C 182 250.640, 179.848 248.004, 177.217 245.318 C 170.216 238.168, 163 227.088, 163 223.488 C 163 222.601, 161.895 219.541, 160.545 216.687 C 158.378 212.105, 158.067 209.976, 157.887 198.499 C 157.665 184.250, 158.535 179.952, 163.926 168.655 C 167.981 160.159, 185.663 141.734, 191.234 140.199 C 193.288 139.633, 196.161 138.232, 197.619 137.085 C 199.077 135.938, 201.073 135, 202.054 135 C 203.035 135, 206.627 134.286, 210.036 133.412 C 214.545 132.257, 218.994 131.960, 226.367 132.322 C 243.102 133.144, 247.830 134.634, 259.448 142.750 C 262.007 144.537, 264.475 146, 264.934 146 C 265.392 146, 267.282 147.717, 269.134 149.815 C 270.985 151.913, 274.210 155.574, 276.299 157.951 C 285.007 167.856, 289.268 180.906, 289.375 198 C 289.447 209.425, 289.209 211.145, 286.604 218 C 282.158 229.705, 278.592 235.379, 268.598 246.652 L 264.697 251.052 269.573 255.724 C 277.538 263.357, 283.704 270.839, 285.930 275.574 C 287.079 278.019, 288.915 280.915, 290.010 282.010 C 291.104 283.104, 292 284.794, 292 285.765 C 292 286.735, 292.856 289.127, 293.903 291.079 C 297.568 297.918, 300.459 308.850, 302.846 324.896 C 304.047 332.971, 307.575 332.313, 317.319 322.198 C 319.069 320.381, 323.313 316.016, 326.750 312.498 C 330.188 308.979, 333 305.663, 333 305.128 C 333 304.594, 335.003 301.169, 337.452 297.518 C 344.214 287.433, 351.583 271.149, 354.548 259.739 C 358.962 242.749, 359.103 241.913, 359.552 230 C 359.790 223.675, 360.225 217.478, 360.517 216.229 C 360.809 214.981, 360.489 212.956, 359.805 211.729 C 359.121 210.503, 358.259 206.575, 357.889 203 C 357.519 199.425, 356.689 194.700, 356.044 192.500 C 355.399 190.300, 354.482 186.700, 354.007 184.500 C 350.792 169.623, 334.846 142.698, 321.500 129.612 C 308.303 116.671, 285.442 100.024, 280.821 99.990 C 280.094 99.985, 277.084 98.856, 274.131 97.481 C 258.189 90.060, 228.317 86.258, 205 88.684 M 204.263 142.517 C 193.657 146.130, 190.752 147.967, 182.469 156.305 C 168.747 170.116, 163.438 185.780, 165.759 205.612 C 166.854 214.969, 169.664 222.351, 176.256 233.190 C 179.142 237.935, 195.621 250.587, 201.205 252.345 C 214.271 256.458, 229.185 257.698, 235.706 255.215 C 237.243 254.630, 240.076 253.893, 242.002 253.577 C 248.559 252.501, 263.815 241.361, 270.180 233 C 279.105 221.277, 283.978 203.762, 281.902 190.871 C 281.365 187.537, 281.198 183.950, 281.532 182.900 C 281.902 181.732, 281.334 179.969, 280.069 178.360 C 278.931 176.914, 278 174.925, 278 173.942 C 278 172.958, 276.425 170.090, 274.500 167.568 C 272.575 165.046, 271 162.087, 271 160.991 C 271 159.896, 270.438 158.999, 269.750 158.999 C 269.063 158.998, 264.480 155.662, 259.566 151.585 C 254.653 147.508, 249.478 143.952, 248.066 143.682 C 246.655 143.412, 243.025 142.478, 240 141.607 C 230.981 139.010, 213.229 139.462, 204.263 142.517 M 184.302 260.851 C 173.773 269.654, 167.420 277.612, 164.433 285.741 C 163.778 287.523, 162.418 290.223, 161.410 291.741 C 160.403 293.258, 159.482 295.102, 159.365 295.838 C 159.247 296.573, 158.435 297.966, 157.561 298.933 C 156.686 299.900, 155.801 302.448, 155.595 304.595 C 155.389 306.743, 154.497 311.875, 153.611 316 C 151.677 325.013, 151.490 336.997, 153.250 339.140 C 155.408 341.768, 165.742 348, 167.941 348 C 169.098 348, 173.060 349.368, 176.747 351.039 C 196.602 360.042, 232.750 362.010, 256.728 355.393 C 259.903 354.517, 263.625 353.575, 265 353.300 C 268.059 352.688, 286.776 343.798, 292.155 340.402 L 296.067 337.933 295.438 328.716 C 295.091 323.647, 293.905 316.350, 292.801 312.500 C 291.697 308.650, 290.165 303.311, 289.397 300.635 C 288.629 297.960, 288 294.936, 288 293.916 C 288 287.349, 261.768 256, 256.273 256 C 255.217 256, 250.782 257.547, 246.417 259.439 C 237.813 263.167, 225.730 265.257, 218 264.353 C 212.630 263.725, 198.309 259.265, 195.527 257.355 C 192.314 255.148, 190.416 255.739, 184.302 260.851" stroke="none" fill="#c4c4c4" fill-rule="evenodd"/></svg>